<mxfile host="app.diagrams.net" agent="Mozilla/5.0 (Windows NT 10.0; Win64; x64) AppleWebKit/537.36 (KHTML, like Gecko) Chrome/131.0.0.0 Safari/537.36" version="26.0.5">
  <diagram name="第 1 页" id="pI1vbrWF9PCCL8gTiNiq">
    <mxGraphModel dx="1050" dy="522" grid="1" gridSize="10" guides="1" tooltips="1" connect="1" arrows="1" fold="1" page="1" pageScale="1" pageWidth="827" pageHeight="1169" math="0" shadow="0">
      <root>
        <mxCell id="0" />
        <mxCell id="1" parent="0" />
        <mxCell id="SIsheXq9tfvpxYsavHOn-1" value="" style="rounded=0;whiteSpace=wrap;html=1;" vertex="1" parent="1">
          <mxGeometry x="50" y="525" width="90" height="60" as="geometry" />
        </mxCell>
        <mxCell id="SIsheXq9tfvpxYsavHOn-2" value="" style="shape=manualInput;whiteSpace=wrap;html=1;direction=south;size=13;" vertex="1" parent="1">
          <mxGeometry x="650" y="610" width="80" height="80" as="geometry" />
        </mxCell>
        <mxCell id="SIsheXq9tfvpxYsavHOn-3" value="" style="verticalLabelPosition=middle;verticalAlign=middle;html=1;shape=trapezoid;perimeter=trapezoidPerimeter;whiteSpace=wrap;size=0.23;arcSize=10;flipV=1;labelPosition=center;align=center;rotation=0;direction=south;" vertex="1" parent="1">
          <mxGeometry x="440" y="585" width="60" height="100" as="geometry" />
        </mxCell>
        <mxCell id="SIsheXq9tfvpxYsavHOn-18" style="edgeStyle=orthogonalEdgeStyle;rounded=0;orthogonalLoop=1;jettySize=auto;html=1;exitX=0.5;exitY=0;exitDx=0;exitDy=0;entryX=0.65;entryY=0.884;entryDx=0;entryDy=0;entryPerimeter=0;" edge="1" parent="1" source="SIsheXq9tfvpxYsavHOn-7" target="SIsheXq9tfvpxYsavHOn-11">
          <mxGeometry relative="1" as="geometry">
            <mxPoint x="230" y="660" as="targetPoint" />
          </mxGeometry>
        </mxCell>
        <mxCell id="SIsheXq9tfvpxYsavHOn-7" value="" style="verticalLabelPosition=middle;verticalAlign=middle;html=1;shape=trapezoid;perimeter=trapezoidPerimeter;whiteSpace=wrap;size=0.23;arcSize=10;flipV=1;labelPosition=center;align=center;rotation=0;direction=south;" vertex="1" parent="1">
          <mxGeometry x="40" y="660" width="60" height="100" as="geometry" />
        </mxCell>
        <mxCell id="SIsheXq9tfvpxYsavHOn-8" value="" style="verticalLabelPosition=middle;verticalAlign=middle;html=1;shape=trapezoid;perimeter=trapezoidPerimeter;whiteSpace=wrap;size=0.23;arcSize=10;flipV=1;labelPosition=center;align=center;rotation=0;direction=south;" vertex="1" parent="1">
          <mxGeometry x="270" y="760" width="60" height="100" as="geometry" />
        </mxCell>
        <mxCell id="SIsheXq9tfvpxYsavHOn-9" value="" style="verticalLabelPosition=middle;verticalAlign=middle;html=1;shape=trapezoid;perimeter=trapezoidPerimeter;whiteSpace=wrap;size=0.23;arcSize=10;flipV=1;labelPosition=center;align=center;rotation=0;direction=south;" vertex="1" parent="1">
          <mxGeometry x="414" y="760" width="60" height="100" as="geometry" />
        </mxCell>
        <mxCell id="SIsheXq9tfvpxYsavHOn-10" value="" style="verticalLabelPosition=middle;verticalAlign=middle;html=1;shape=trapezoid;perimeter=trapezoidPerimeter;whiteSpace=wrap;size=0.23;arcSize=10;flipV=1;labelPosition=center;align=center;rotation=0;direction=south;" vertex="1" parent="1">
          <mxGeometry x="540" y="760" width="60" height="100" as="geometry" />
        </mxCell>
        <mxCell id="SIsheXq9tfvpxYsavHOn-19" style="edgeStyle=orthogonalEdgeStyle;rounded=0;orthogonalLoop=1;jettySize=auto;html=1;exitX=0.5;exitY=0;exitDx=0;exitDy=0;exitPerimeter=0;" edge="1" parent="1" source="SIsheXq9tfvpxYsavHOn-11" target="SIsheXq9tfvpxYsavHOn-3">
          <mxGeometry relative="1" as="geometry" />
        </mxCell>
        <mxCell id="SIsheXq9tfvpxYsavHOn-11" value="Mux" style="strokeWidth=2;html=1;shape=mxgraph.flowchart.start_1;whiteSpace=wrap;rotation=90;" vertex="1" parent="1">
          <mxGeometry x="210" y="610" width="80" height="50" as="geometry" />
        </mxCell>
        <mxCell id="SIsheXq9tfvpxYsavHOn-12" value="" style="strokeWidth=2;html=1;shape=mxgraph.flowchart.start_1;whiteSpace=wrap;rotation=90;" vertex="1" parent="1">
          <mxGeometry x="270" y="850" width="80" height="50" as="geometry" />
        </mxCell>
        <mxCell id="SIsheXq9tfvpxYsavHOn-13" value="" style="strokeWidth=2;html=1;shape=mxgraph.flowchart.start_1;whiteSpace=wrap;rotation=90;" vertex="1" parent="1">
          <mxGeometry x="370" y="850" width="80" height="50" as="geometry" />
        </mxCell>
        <mxCell id="SIsheXq9tfvpxYsavHOn-14" value="" style="strokeWidth=2;html=1;shape=mxgraph.flowchart.start_1;whiteSpace=wrap;rotation=90;" vertex="1" parent="1">
          <mxGeometry x="450" y="860" width="80" height="50" as="geometry" />
        </mxCell>
        <mxCell id="SIsheXq9tfvpxYsavHOn-15" value="" style="strokeWidth=2;html=1;shape=mxgraph.flowchart.start_1;whiteSpace=wrap;rotation=90;" vertex="1" parent="1">
          <mxGeometry x="530" y="850" width="80" height="50" as="geometry" />
        </mxCell>
        <mxCell id="SIsheXq9tfvpxYsavHOn-16" value="" style="strokeWidth=2;html=1;shape=mxgraph.flowchart.start_1;whiteSpace=wrap;rotation=90;" vertex="1" parent="1">
          <mxGeometry x="630" y="870" width="80" height="50" as="geometry" />
        </mxCell>
        <mxCell id="SIsheXq9tfvpxYsavHOn-17" style="edgeStyle=orthogonalEdgeStyle;rounded=0;orthogonalLoop=1;jettySize=auto;html=1;exitX=1;exitY=0.25;exitDx=0;exitDy=0;entryX=0.5;entryY=1;entryDx=0;entryDy=0;entryPerimeter=0;" edge="1" parent="1" source="SIsheXq9tfvpxYsavHOn-1" target="SIsheXq9tfvpxYsavHOn-11">
          <mxGeometry relative="1" as="geometry" />
        </mxCell>
      </root>
    </mxGraphModel>
  </diagram>
</mxfile>
